# Exported from ProBuilder
# http://www.procore3d.com/probuilder
# 2018/12/10 14:46:56

mtllib ./Stairs.mtl
o Stairs

g Stairs
v 0.75 0 -0.5
v 0.7499999 0 0.5000001
v 0.75 0.4166667 -0.5
v 0.7499999 0.4166667 0.5000001
v 0.75 0.4166667 -0.5
v 0.7499999 0.4166667 0.5000001
v 0.2499999 0.4166667 -0.5000001
v 0.2499998 0.4166667 0.5
v 0.2499999 0.4166667 -0.5000001
v 0.2499998 0.4166667 0.5
v 0.2499999 0.8333334 -0.5000001
v 0.2499998 0.8333334 0.5
v 0.2499999 0.8333334 -0.5000001
v 0.2499998 0.8333334 0.5
v -0.2500001 0.8333334 -0.5000001
v -0.2500002 0.8333334 0.4999999
v -0.2500001 0.8333334 -0.5000001
v -0.2500002 0.8333334 0.4999999
v -0.2500001 1.25 -0.5000001
v -0.2500002 1.25 0.4999999
v -0.2500001 1.25 -0.5000001
v -0.2500002 1.25 0.4999999
v -0.7500002 1.25 -0.5000002
v -0.7500004 1.25 0.4999998
v 0.7499999 0 0.5000001
v 0.2499998 0 0.5
v 0.7499999 0.4166667 0.5000001
v 0.2499998 0.4166667 0.5
v 0.2499998 0 0.5
v -0.2500002 0 0.4999999
v 0.2499998 0.4166667 0.5
v -0.2500002 0.8333333 0.4999999
v 0.2499998 0.4166667 0.5
v 0.2499998 0.8333333 0.5
v -0.2500002 0.8333333 0.4999999
v -0.2500002 0 0.4999999
v -0.7500004 0 0.4999998
v -0.2500002 0.8333333 0.4999999
v -0.7500004 1.25 0.4999998
v -0.2500002 0.8333333 0.4999999
v -0.2500002 1.25 0.4999999
v -0.7500004 1.25 0.4999998
v 0.75 0 -0.5
v 0.2499999 0 -0.5000001
v 0.75 0.4166667 -0.5
v 0.2499999 0.4166667 -0.5000001
v 0.2499999 0 -0.5000001
v -0.2500001 0 -0.5000001
v 0.2499999 0.4166667 -0.5000001
v -0.2500001 0.8333333 -0.5000001
v 0.2499999 0.4166667 -0.5000001
v 0.2499999 0.8333333 -0.5000001
v -0.2500001 0.8333333 -0.5000001
v -0.2500001 0 -0.5000001
v -0.7500002 0 -0.5000002
v -0.2500001 0.8333333 -0.5000001
v -0.7500002 1.25 -0.5000002
v -0.2500001 0.8333333 -0.5000001
v -0.2500001 1.25 -0.5000001
v -0.7500002 1.25 -0.5000002
v -0.7500004 0 0.4999998
v -0.7500002 0 -0.5000002
v -0.7500004 1.25 0.4999998
v -0.7500002 1.25 -0.5000002

vn 1 0 1.192093E-07
vn 1 0 1.192093E-07
vn 1 0 1.192093E-07
vn 1 0 1.192093E-07
vn 0 1 0
vn 0 1 0
vn 0 1 0
vn 0 1 0
vn 1 0 1.192093E-07
vn 1 0 1.192093E-07
vn 1 0 1.192093E-07
vn 1 0 1.192093E-07
vn 0 1 0
vn 0 1 0
vn 0 1 0
vn 0 1 0
vn 1 0 1.192093E-07
vn 1 0 1.192093E-07
vn 1 0 1.192093E-07
vn 1 0 1.192093E-07
vn 0 1 0
vn 0 1 0
vn 0 1 0
vn 0 1 0
vn -2.384185E-07 0 0.9999999
vn -2.384185E-07 0 0.9999999
vn -2.384185E-07 0 0.9999999
vn -2.384185E-07 0 0.9999999
vn -2.384186E-07 0 1
vn -2.384185E-07 0 0.9999999
vn -2.384185E-07 0 0.9999999
vn -2.384186E-07 0 1
vn -2.384185E-07 0 0.9999999
vn -2.384185E-07 0 0.9999999
vn -2.384185E-07 0 0.9999999
vn -2.384185E-07 0 1
vn -2.384185E-07 0 1
vn -2.384185E-07 0 1
vn -2.384185E-07 0 1
vn -2.384185E-07 0 1
vn -2.384185E-07 0 1
vn -2.384185E-07 0 1
vn 1.192093E-07 0 -0.9999999
vn 1.192093E-07 0 -0.9999999
vn 1.192093E-07 0 -0.9999999
vn 1.192093E-07 0 -0.9999999
vn 1.192093E-07 0 -0.9999999
vn 1.192093E-07 0 -1
vn 1.192093E-07 0 -1
vn 1.192093E-07 0 -0.9999999
vn 1.192093E-07 0 -0.9999999
vn 1.192093E-07 0 -0.9999999
vn 1.192093E-07 0 -0.9999999
vn 2.384185E-07 0 -1
vn 2.384185E-07 0 -1
vn 2.384185E-07 0 -1
vn 2.384185E-07 0 -1
vn 2.384185E-07 0 -1
vn 2.384185E-07 0 -1
vn 2.384185E-07 0 -1
vn -1 0 -1.192093E-07
vn -1 0 -1.192093E-07
vn -1 0 -1.192093E-07
vn -1 0 -1.192093E-07

vt 0 0
vt -1 0
vt 0 0.4166667
vt -1 0.4166667
vt 0 0
vt -1 0
vt 0 0.5
vt -1 0.5
vt 0 0.4166667
vt -1 0.4166667
vt 0 0.8333334
vt -1 0.8333334
vt 0 0.5
vt -1 0.5
vt 0 1
vt -1 1
vt 0 0.8333334
vt -1 0.8333334
vt 0 1.25
vt -1 1.25
vt 0 1
vt -1 1
vt 0 1.5
vt -1 1.5
vt 0 0
vt 0.5 0
vt 0 0.4166667
vt 0.5 0.4166667
vt 0.5 0
vt 1 0
vt 0.5 0.4166667
vt 1 0.8333333
vt 0.5 0.4166667
vt 0.5 0.8333333
vt 1 0.8333333
vt 1 0
vt 1.5 0
vt 1 0.8333333
vt 1.5 1.25
vt 1 0.8333333
vt 1 1.25
vt 1.5 1.25
vt 0 0
vt 0.5 0
vt 0 0.4166667
vt 0.5 0.4166667
vt 0.5 0
vt 1 0
vt 0.5 0.4166667
vt 1 0.8333333
vt 0.5 0.4166667
vt 0.5 0.8333333
vt 1 0.8333333
vt 1 0
vt 1.5 0
vt 1 0.8333333
vt 1.5 1.25
vt 1 0.8333333
vt 1 1.25
vt 1.5 1.25
vt 1 0
vt 0 0
vt 1 1.25
vt 0 1.25

g Stairs_0
usemtl Default_Prototype
f 3/3/3 4/4/4 2/2/2 1/1/1
f 7/7/7 8/8/8 6/6/6 5/5/5
f 11/11/11 12/12/12 10/10/10 9/9/9
f 15/15/15 16/16/16 14/14/14 13/13/13
f 19/19/19 20/20/20 18/18/18 17/17/17
f 23/23/23 24/24/24 22/22/22 21/21/21
f 27/27/27 28/28/28 26/26/26 25/25/25
f 31/31/31 32/32/32 30/30/30 29/29/29
f 38/38/38 39/39/39 37/37/37 36/36/36
f 46/46/46 45/45/45 43/43/43 44/44/44
f 50/50/50 49/49/49 47/47/47 48/48/48
f 57/57/57 56/56/56 54/54/54 55/55/55
f 63/63/63 64/64/64 62/62/62 61/61/61

g Stairs_1
usemtl Default_Prototype
f 33/33/33 34/34/34 35/35/35
f 40/40/40 41/41/41 42/42/42
f 53/53/53 52/52/52 51/51/51
f 60/60/60 59/59/59 58/58/58

